<svg width="1341" height="634" viewBox="0 0 1341 634" fill="none" xmlns="http://www.w3.org/2000/svg">
<g clip-path="url(#clip0_722_8)">
<path d="M93.5831 -9.83874C74.5677 -80.8052 108.321 -158.815 178.486 -227.595C248.639 -296.363 355.114 -355.817 481.289 -389.625C607.464 -423.434 729.401 -425.183 824.539 -400.705C919.695 -376.222 987.93 -325.54 1006.95 -254.574C1025.96 -183.607 992.208 -105.598 922.043 -36.8172C851.89 31.9508 745.415 91.4046 619.24 125.213C493.065 159.022 371.128 160.771 275.989 136.292C180.834 111.81 112.599 61.1277 93.5831 -9.83874Z" fill="url(#paint0_linear_722_8)" stroke="url(#paint1_linear_722_8)"/>
<path d="M93.5831 -22.8387C74.5677 -93.8052 108.321 -171.815 178.486 -240.595C248.639 -309.363 355.114 -368.817 481.289 -402.625C607.464 -436.434 729.401 -438.183 824.539 -413.705C919.695 -389.222 987.93 -338.54 1006.95 -267.574C1025.96 -196.607 992.208 -118.598 922.043 -49.8172C851.89 18.9508 745.415 78.4046 619.24 112.213C493.065 146.022 371.128 147.771 275.989 123.292C180.834 98.8096 112.599 48.1277 93.5831 -22.8387Z" stroke="url(#paint2_linear_722_8)"/>
<path d="M93.5831 -35.8387C74.5677 -106.805 108.321 -184.815 178.486 -253.595C248.639 -322.363 355.114 -381.817 481.289 -415.625C607.464 -449.434 729.401 -451.183 824.539 -426.705C919.695 -402.222 987.93 -351.54 1006.95 -280.574C1025.96 -209.607 992.208 -131.598 922.043 -62.8172C851.89 5.95084 745.415 65.4046 619.24 99.2131C493.065 133.022 371.128 134.771 275.989 110.292C180.834 85.8096 112.599 35.1277 93.5831 -35.8387Z" stroke="url(#paint3_linear_722_8)"/>
<path d="M589.251 434.758C581.607 519.239 625.457 600.375 702.655 663.258C779.85 726.138 890.348 770.725 1015.85 782.082C1141.36 793.438 1258.07 769.41 1345.3 721.408C1432.53 673.403 1490.23 601.456 1497.87 516.976C1505.52 432.495 1461.67 351.359 1384.47 288.476C1307.28 225.595 1196.78 181.008 1071.27 169.652C945.764 158.295 829.058 182.323 741.829 230.326C654.598 278.33 596.895 350.277 589.251 434.758Z" fill="url(#paint4_linear_722_8)" stroke="url(#paint5_linear_722_8)"/>
<path d="M596.251 454.758C588.607 539.239 632.457 620.375 709.655 683.258C786.85 746.138 897.348 790.725 1022.85 802.082C1148.36 813.438 1265.07 789.41 1352.3 741.408C1439.53 693.403 1497.23 621.456 1504.87 536.976C1512.52 452.495 1468.67 371.359 1391.47 308.476C1314.28 245.595 1203.78 201.008 1078.27 189.652C952.764 178.295 836.058 202.323 748.829 250.326C661.598 298.33 603.895 370.277 596.251 454.758Z" stroke="url(#paint6_linear_722_8)"/>
<path d="M601.251 476.758C593.607 561.239 637.457 642.375 714.655 705.258C791.85 768.138 902.348 812.725 1027.85 824.082C1153.36 835.438 1270.07 811.41 1357.3 763.408C1444.53 715.403 1502.23 643.456 1509.87 558.976C1517.52 474.495 1473.67 393.359 1396.47 330.476C1319.28 267.595 1208.78 223.008 1083.27 211.652C957.764 200.295 841.058 224.323 753.829 272.326C666.598 320.33 608.895 392.277 601.251 476.758Z" stroke="url(#paint7_linear_722_8)"/>
<path d="M-180.522 372.208C4.36737 168.214 319.62 152.726 523.614 337.615C727.609 522.505 743.096 837.757 558.207 1041.75C373.317 1245.75 58.0649 1261.23 -145.929 1076.34C-349.924 891.455 -365.411 576.202 -180.522 372.208Z" stroke="url(#paint8_linear_722_8)"/>
<path d="M-180.522 344.208C4.36737 140.214 319.62 124.726 523.614 309.615C727.609 494.505 743.096 809.757 558.207 1013.75C373.317 1217.75 58.0649 1233.23 -145.929 1048.34C-349.924 863.455 -365.411 548.202 -180.522 344.208Z" fill="url(#paint9_linear_722_8)" fill-opacity="0.75" stroke="url(#paint10_linear_722_8)"/>
<path d="M111.706 405.351C142.336 351.683 199.553 319.878 267.368 311.887C335.183 303.897 413.559 319.73 486.409 361.306C559.259 402.883 612.754 462.312 640.365 524.765C667.977 587.217 669.694 652.658 639.064 706.326C608.435 759.995 551.217 791.8 483.402 799.79C415.587 807.781 337.211 791.948 264.361 750.371C191.512 708.794 138.017 649.365 110.405 586.913C82.7936 524.46 81.0764 459.02 111.706 405.351Z" fill="url(#paint11_linear_722_8)" stroke="url(#paint12_linear_722_8)"/>
<path d="M105.706 423.351C136.336 369.683 193.553 337.878 261.368 329.887C329.183 321.897 407.559 337.73 480.409 379.306C553.259 420.883 606.754 480.312 634.365 542.765C661.977 605.217 663.694 670.658 633.064 724.326C602.435 777.995 545.217 809.8 477.402 817.79C409.587 825.781 331.211 809.948 258.361 768.371C185.512 726.794 132.017 667.365 104.405 604.913C76.7936 542.46 75.0764 477.02 105.706 423.351Z" stroke="url(#paint13_linear_722_8)"/>
</g>
<defs>
<linearGradient id="paint0_linear_722_8" x1="619.369" y1="125.696" x2="579.843" y2="-3.4751" gradientUnits="userSpaceOnUse">
<stop stop-color="#E7DCD0"/>
<stop offset="0.914117" stop-color="white" stop-opacity="0"/>
</linearGradient>
<linearGradient id="paint1_linear_722_8" x1="615" y1="286" x2="461" y2="-172.5" gradientUnits="userSpaceOnUse">
<stop stop-color="#C0A283"/>
<stop offset="1" stop-color="#F7FBFF" stop-opacity="0"/>
</linearGradient>
<linearGradient id="paint2_linear_722_8" x1="615" y1="273" x2="461" y2="-185.5" gradientUnits="userSpaceOnUse">
<stop stop-color="#D4AF89"/>
<stop offset="1" stop-color="white" stop-opacity="0"/>
</linearGradient>
<linearGradient id="paint3_linear_722_8" x1="615" y1="260" x2="461" y2="-198.5" gradientUnits="userSpaceOnUse">
<stop stop-color="#D8AF86"/>
<stop offset="1" stop-color="white" stop-opacity="0"/>
</linearGradient>
<linearGradient id="paint4_linear_722_8" x1="1071.32" y1="169.154" x2="1070.5" y2="341.601" gradientUnits="userSpaceOnUse">
<stop stop-color="#E7DCD0"/>
<stop offset="0.5" stop-color="#F7FBFF" stop-opacity="0"/>
</linearGradient>
<linearGradient id="paint5_linear_722_8" x1="1071.32" y1="169.154" x2="1044" y2="514.5" gradientUnits="userSpaceOnUse">
<stop stop-color="#E9CEB3"/>
<stop offset="1" stop-color="#F7FBFF" stop-opacity="0"/>
</linearGradient>
<linearGradient id="paint6_linear_722_8" x1="1078.32" y1="189.154" x2="1051" y2="534.5" gradientUnits="userSpaceOnUse">
<stop stop-color="#E9CEB3"/>
<stop offset="1" stop-color="#F7FBFF" stop-opacity="0"/>
</linearGradient>
<linearGradient id="paint7_linear_722_8" x1="1083.32" y1="211.154" x2="1056" y2="556.5" gradientUnits="userSpaceOnUse">
<stop stop-color="#E9CEB3"/>
<stop offset="1" stop-color="#F7FBFF" stop-opacity="0"/>
</linearGradient>
<linearGradient id="paint8_linear_722_8" x1="319.5" y1="417" x2="467.5" y2="220.5" gradientUnits="userSpaceOnUse">
<stop stop-color="white" stop-opacity="0"/>
<stop offset="1" stop-color="#D3B494"/>
</linearGradient>
<linearGradient id="paint9_linear_722_8" x1="245.5" y1="305.5" x2="310.5" y2="147" gradientUnits="userSpaceOnUse">
<stop stop-color="#E7DCD0" stop-opacity="0"/>
<stop offset="1" stop-color="#ECCDAC"/>
</linearGradient>
<linearGradient id="paint10_linear_722_8" x1="319.5" y1="389" x2="467.5" y2="192.5" gradientUnits="userSpaceOnUse">
<stop stop-color="white" stop-opacity="0"/>
<stop offset="1" stop-color="#E9CEB3"/>
</linearGradient>
<linearGradient id="paint11_linear_722_8" x1="449.5" y1="556" x2="498" y2="317" gradientUnits="userSpaceOnUse">
<stop offset="0.463542" stop-color="#F7FBFF" stop-opacity="0"/>
<stop offset="1" stop-color="#E7DCD0" stop-opacity="0.58"/>
</linearGradient>
<linearGradient id="paint12_linear_722_8" x1="511.5" y1="319.5" x2="423" y2="565" gradientUnits="userSpaceOnUse">
<stop stop-color="#E9CEB3"/>
<stop offset="1" stop-color="white" stop-opacity="0"/>
</linearGradient>
<linearGradient id="paint13_linear_722_8" x1="505.5" y1="337.5" x2="417" y2="583" gradientUnits="userSpaceOnUse">
<stop stop-color="#D3B79A"/>
<stop offset="1" stop-color="#F7FBFF" stop-opacity="0"/>
</linearGradient>
<clipPath id="clip0_722_8">
<rect width="1341" height="634" fill="white"/>
</clipPath>
</defs>
</svg>
